<svg width="245" height="175" viewBox="0 0 245 175" fill="none" xmlns="http://www.w3.org/2000/svg">
<path d="M50.1627 99.3194L45.4797 91.1523H42.1107H41.8243L37.0066 99.3194L32.3236 91.1523H28.9546L35.2884 101.861H38.7248L43.5425 93.5584L48.4445 101.861H51.8809L58.0967 91.1523H54.9804L50.1627 99.3194Z" fill="#97999B"/>
<path d="M80.8632 96.3034C80.8632 93.4228 78.5386 91.0845 75.6749 91.0845H68.1788C65.3488 91.0845 63.041 93.4059 63.041 96.2695V96.6592C63.041 99.5228 65.3488 101.827 68.1788 101.827H75.6749C78.5386 101.827 80.8632 99.5059 80.8632 96.6253V96.3034ZM77.9658 96.6253C77.9658 97.8961 76.9383 98.9297 75.6749 98.9297H68.1788C66.9491 98.9297 65.9384 97.9131 65.9384 96.6592V96.2695C65.9384 95.0156 66.9491 93.9989 68.1788 93.9989H75.6749C76.9383 93.9989 77.9658 95.0326 77.9658 96.3034V96.6253Z" fill="#97999B"/>
<path d="M90.3551 91.1015H87.4746V101.827H103.444V98.9297H90.3551L90.3551 91.1015Z" fill="#97999B"/>
<path d="M115.193 94.0836H125.654V91.1692H115.193C112.347 91.1692 110.056 93.4906 110.056 96.3372V101.827H112.936V97.9978L124.846 98.0147L124.863 95.1003L113.324 95.0833C113.728 94.4734 114.419 94.0836 115.193 94.0836Z" fill="#97999B"/>
<path d="M148.235 91.1354H141.699V91.1184H138.802V91.1354H132.266V94.0328H138.802V101.827H141.699V94.0328H148.235V91.1354Z" fill="#97999B"/>
<path d="M154.847 96.2695V96.6592C154.847 99.5228 157.138 101.827 159.985 101.827H170.816V98.9297H159.985C159.21 98.9297 158.519 98.5231 158.115 97.9131L169.637 97.947L169.654 95.0325L158.115 94.9986C158.519 94.4056 159.21 93.9989 159.985 93.9989H170.446V91.0845H159.985C157.138 91.0845 154.847 93.4059 154.847 96.2695Z" fill="#97999B"/>
<path d="M182.599 93.9989H193.464V91.0845H182.599C179.752 91.0845 177.428 93.4228 177.428 96.3034V96.6253C177.428 99.5058 179.752 101.827 182.599 101.827H193.464V98.9297H182.599C181.353 98.9297 180.325 97.8961 180.325 96.6253V96.3034C180.325 95.0325 181.353 93.9989 182.599 93.9989Z" fill="#97999B"/>
<path d="M213.148 95.0495L202.974 95.0326V91.1184H200.076V101.827H202.974V97.947L213.148 97.9639V101.827H216.045V91.1184H213.148V95.0495Z" fill="#97999B"/>
<path fill-rule="evenodd" clip-rule="evenodd" d="M95.6006 57.2251V58.0825C96.0824 59.3934 96.558 60.7043 97.0583 62.1023C97.2312 61.9718 97.435 61.8227 97.6142 61.6922C97.8489 62.3756 98.0712 63.0218 98.3121 63.7238C98.6766 63.1957 98.9483 62.8043 99.2139 62.4191C99.5783 63.1523 99.8995 63.7922 100.35 64.6931C100.474 63.9227 100.548 63.4691 100.665 62.7236C102.049 63.4008 103.303 63.9351 104.476 64.6061C105.211 65.0286 105.415 65.7306 105.187 66.6377C104.785 68.2531 104.489 69.8995 104.198 71.546C103.988 72.7327 104.217 73.7143 105.31 74.5158C107.021 75.777 108.627 77.1936 110.252 78.5729C110.919 79.1383 111.604 79.2874 112.401 78.927C115.848 77.3738 119.3 75.8205 122.747 74.2611C127.355 72.1735 131.981 70.1481 136.996 69.2037C139.399 68.7439 141.363 67.6007 142.506 66.1531H136.904C139.646 65.9232 142.104 65.0224 144.347 62.9907C143.936 63.0848 143.535 63.1919 143.14 63.2974C141.526 63.7287 140.004 64.1351 138.287 63.5312C142.778 63.0404 146.163 60.7851 149.399 57.691C147.552 58.1756 145.971 58.654 144.353 58.9895C142.691 59.3313 141.011 59.3934 139.393 58.6106C143.167 59.0765 145.977 57.5543 148.238 54.3422C144.594 55.7153 141.19 54.9884 137.892 54.2428C138.905 53.6464 139.943 53.0375 140.943 52.4535C139.541 51.6582 138.195 51.1239 137.145 50.2417C135.551 48.9059 134.779 47.2532 135.446 44.9544C135.763 43.865 135.589 42.6056 135.422 41.3906C135.387 41.1366 135.352 40.8845 135.323 40.6364C135.193 39.5553 134.81 38.5116 134.495 37.2627C133.012 40.158 131.74 42.9787 128.701 44.5941C129.628 41.7734 129.072 39.2882 127.509 36.7346C127.101 37.8343 126.743 38.7477 126.434 39.6734C125.712 41.8355 123.062 43.9541 120.338 43.4074C117.367 42.8172 114.668 43.8361 112.129 45.2961C111.542 45.6316 111.073 45.6876 110.455 45.4204C107.664 44.2027 104.686 43.7864 101.678 43.5254C101.042 43.4695 100.425 43.1775 99.8192 42.9414C98.9545 42.5997 98.1021 42.2207 97.2127 41.8417C96.688 43.0216 96.9516 44.0074 97.2114 44.9789C97.2635 45.1738 97.3155 45.3681 97.3609 45.5633C97.4659 45.9982 97.5092 46.5636 97.3239 46.9364C96.1874 49.2103 96.6815 50.4343 99.1151 51.1798C99.3727 51.2623 99.6303 51.3224 99.6302 51.3232C99.6302 51.3232 99.6294 51.323 99.6278 51.3227C100.147 52.5529 100.573 53.5781 101.005 54.6094L101.19 54.5162C101.153 53.8079 101.116 53.0997 101.073 52.3789C105.526 52.5343 107.602 55.5041 107.824 58.2378C106.014 57.9271 104.174 57.6662 102.352 57.2934C99.3251 56.6721 99.0101 56.2434 99.0101 53.168V52.5094C98.4233 52.9443 98.4233 52.9443 97.7006 56.0881C96.6444 55.765 95.9959 56.2745 95.6006 57.2251Z" fill="#97999B"/>
</svg>
